<svg width="164" height="164" viewBox="0 0 164 164" fill="none" xmlns="http://www.w3.org/2000/svg">
<path d="M0 0H164V164H0V0Z" fill="#AF1D50"/>
<path d="M129.613 70.0086L124.675 93.1097H145.837V120.267H118.856L113.037 147.247H84.8215L90.6409 120.267H61.3678L55.5484 147.247H27.3333L33.1527 120.267H7.05377V93.1097H38.9721L43.9097 70.0086H18.3398V42.8516H49.5527L55.1957 16.7527H83.4108L77.7678 42.8516H107.041L112.684 16.7527H140.899L135.256 42.8516H157.123V70.0086H129.613ZM101.398 70.0086H72.1247L67.1871 93.1097H96.4602L101.398 70.0086Z" fill="white" fill-opacity="0.1"/>
<path d="M130.495 47.6129L112.799 115.505H92.782L81.9516 70.824L70.7345 115.505H50.7178L33.5054 47.6129H51.2013L60.9679 97.0332L73.0553 47.6129H91.2348L102.839 97.0332L112.702 47.6129H130.495Z" fill="white"/>
</svg>
